<svg viewBox="0 0 40 40" xmlns="http://www.w3.org/2000/svg" xmlns:xlink="http://www.w3.org/1999/xlink"><linearGradient id="a" gradientUnits="userSpaceOnUse" x1="18.1353" x2="35.3058" y1="17.3717" y2="27.2851"><stop offset="0" stop-color="#37bdff"/><stop offset=".1832" stop-color="#33bffd"/><stop offset=".3576" stop-color="#28c5f5"/><stop offset=".528" stop-color="#15d0e9"/><stop offset=".5468" stop-color="#12d1e7"/><stop offset=".5903" stop-color="#1cd2e5"/><stop offset=".7679" stop-color="#42d8dc"/><stop offset=".9107" stop-color="#59dbd6"/><stop offset="1" stop-color="#62dcd4"/></linearGradient><linearGradient id="b" gradientUnits="userSpaceOnUse" x1="8.0728" x2="33.0621" y1="32.2435" y2="32.2435"><stop offset="0" stop-color="#39d2ff"/><stop offset=".1501" stop-color="#38cefe"/><stop offset=".2931" stop-color="#35c3fa"/><stop offset=".4327" stop-color="#2fb0f3"/><stop offset=".5468" stop-color="#299aeb"/><stop offset=".5827" stop-color="#2692ec"/><stop offset=".7635" stop-color="#1a6cf1"/><stop offset=".909" stop-color="#1355f4"/><stop offset="1" stop-color="#104cf5"/></linearGradient><linearGradient id="c" gradientUnits="userSpaceOnUse" x1="12.6858" x2="12.6858" y1="34.4401" y2="1.0254"><stop offset="0" stop-color="#1b48ef"/><stop offset=".1221" stop-color="#1c51f0"/><stop offset=".3212" stop-color="#1e69f5"/><stop offset=".5676" stop-color="#2190fb"/><stop offset="1" stop-color="#26b8f4"/></linearGradient><path d="m0 0h40v40h-40z" fill="none"/><path d="m34.667 25.557c0 .389-.021.775-.063 1.155-.251 2.321-1.256 4.42-2.768 6.043.19-.211.362-.439.513-.682.116-.185.219-.378.307-.579.032-.066.061-.135.085-.204.029-.066.053-.135.074-.204.024-.063.045-.13.063-.196.018-.069.037-.137.053-.206.003-.008.005-.016.008-.024.016-.069.029-.137.042-.206.013-.071.026-.143.037-.214 0-.003 0-.003 0-.005.011-.066.018-.132.024-.201.016-.156.024-.312.024-.471 0-.894-.246-1.732-.677-2.445-.098-.167-.206-.325-.325-.476-.14-.18-.291-.349-.455-.505-.407-.394-.883-.716-1.409-.944-.227-.1-.465-.182-.708-.243-.003 0-.008-.003-.011-.003l-.085-.029-1.232-.423v-.003l-3.222-1.108c-.011-.003-.024-.003-.032-.005l-.201-.074c-.648-.254-1.184-.73-1.52-1.335l-1.176-3-1.348-3.437-.259-.664-.066-.135c-.074-.18-.114-.375-.114-.579 0-.053 0-.106.005-.153.077-.756.719-1.348 1.496-1.348.206 0 .404.042.584.119l6.006 3.08 1.184.605c.626.373 1.211.812 1.745 1.306 1.935 1.776 3.204 4.267 3.394 7.05.016.248.027.494.027.743z" fill="url(#a)"/><path d="m33.062 29.564c0 .307-.029.603-.082.891-.016.077-.032.153-.05.23-.034.137-.071.27-.116.402-.024.069-.048.137-.074.204-.026.069-.056.135-.085.204-.087.201-.19.394-.307.579-.151.243-.323.471-.513.682-.875.968-3.847 2.693-4.942 3.394l-2.431 1.486c-1.781 1.098-3.466 1.874-5.588 1.927-.1.003-.198.005-.296.005-.137 0-.272-.003-.407-.008-3.595-.137-6.73-2.067-8.539-4.92-.827-1.303-1.375-2.799-1.56-4.407.389 2.197 2.303 3.862 4.61 3.862.809 0 1.568-.204 2.231-.563.005-.003.011-.005.016-.008l.238-.143.968-.571 1.232-.73v-.034l.159-.095 11.021-6.53.849-.502.085.029c.003 0 .008.003.011.003.243.061.481.143.708.243.526.227 1.002.55 1.409.944.164.156.315.325.455.505.119.151.227.309.325.476.427.714.673 1.552.673 2.445z" fill="url(#b)"/><path d="m17.372 7.774-.004 24.306-1.232.73-.968.571-.238.145c-.004 0-.011.004-.014.007-.665.358-1.423.564-2.233.564-2.309 0-4.22-1.666-4.61-3.862-.018-.101-.032-.206-.043-.307-.016-.192-.026-.38-.03-.572v-27.355c0-.863.701-1.568 1.568-1.568.325 0 .629.101.878.267l4.794 3.132c.025.022.054.04.083.058 1.239.845 2.049 2.269 2.049 3.884z" fill="url(#c)"/></svg>